<?xml version="1.0" encoding="UTF-8" standalone="no"?>
<!-- Created with Inkscape (http://www.inkscape.org/) -->

<svg
   version="1.1"
   id="svg1"
   width="1024"
   height="1024"
   viewBox="0 0 1024 1024"
   sodipodi:docname="cloud.svg"
   inkscape:version="1.4.2 (ebf0e940d0, 2025-05-08)"
   xmlns:inkscape="http://www.inkscape.org/namespaces/inkscape"
   xmlns:sodipodi="http://sodipodi.sourceforge.net/DTD/sodipodi-0.dtd"
   xmlns="http://www.w3.org/2000/svg"
   xmlns:svg="http://www.w3.org/2000/svg">
  <defs
     id="defs1" />
  <sodipodi:namedview
     id="namedview1"
     pagecolor="#ffffff"
     bordercolor="#000000"
     borderopacity="0.25"
     inkscape:showpageshadow="2"
     inkscape:pageopacity="0.0"
     inkscape:pagecheckerboard="0"
     inkscape:deskcolor="#d1d1d1"
     inkscape:zoom="0.72558594"
     inkscape:cx="512"
     inkscape:cy="512"
     inkscape:window-width="1920"
     inkscape:window-height="1003"
     inkscape:window-x="0"
     inkscape:window-y="0"
     inkscape:window-maximized="1"
     inkscape:current-layer="g1" />
  <g
     inkscape:groupmode="layer"
     inkscape:label="Image"
     id="g1">
    <path
       style="fill:#000000"
       d="M 422.34157,728.58953 C 409.28691,726.09481 395.05167,720.20074 384.0601,712.73917 378.87092,709.21653 363,693.77578 363,692.24989 c 0,-0.55399 1.42854,-1.59897 3.17453,-2.32218 8.31389,-3.44373 23.76333,-17.09151 30.48246,-26.92771 10.33496,-15.12944 14.68494,-29.88355 14.15193,-48 L 410.5,604.5 l -1.25109,6.58816 C 401.46059,652.10103 370.19596,680.71085 330,683.60771 281.00088,687.13902 237.61689,644.50234 240.34799,595.5 c 0.97918,-17.56878 7.31641,-35.57037 16.70212,-47.44418 5.0393,-6.37519 2.32276,-5.14542 -4.68402,2.12044 -11.03615,11.44423 -17.75027,22.89156 -21.38739,36.46476 -2.69629,10.06215 -3.6052,24.94035 -2.06419,33.78948 0.65163,3.74194 0.95174,7.03658 0.6669,7.32142 -1.24937,1.24937 -20.01975,-2.16947 -29.87873,-5.44212 -37.17315,-12.33948 -64.99625,-45.87072 -70.75783,-85.27436 -1.64996,-11.28419 -0.67154,-30.05226 2.13792,-41.00918 11.23939,-43.83388 46.47229,-74.17943 92.32941,-79.52191 l 5.91218,-0.68879 -5.11595,5.73997 c -5.86866,6.58449 -11.23012,16.2637 -13.81711,24.94447 -3.62127,12.15132 -2.03455,31.8055 3.53971,43.84533 l 1.92355,4.15467 -0.67728,-3.5 c -1.28712,-6.65149 -0.61788,-22.27893 1.22051,-28.5 10.20599,-34.53685 41.92785,-54.01613 76.39437,-46.91108 8.5502,1.76257 20.13429,6.72772 25.82748,11.07013 5.56911,4.24777 2.9573,0.24562 -4.79807,-7.35221 -19.29495,-18.903 -46.95226,-23.93201 -70.12811,-12.75161 -2.77207,1.33729 -5.24817,2.22339 -5.50245,1.96912 -1.0331,-1.03311 9.13087,-19.49394 14.32822,-26.02435 26.59482,-33.41608 73.37698,-43.88809 111.98077,-25.06646 15.17559,7.399 29.60568,20.09134 36.66795,32.25221 l 2.66796,4.59408 -7.26199,7.11009 c -9.68445,9.48187 -14.62275,20.48019 -14.55196,32.4093 l 0.022,3.70078 1.83824,-4 c 2.67308,-5.8166 9.27913,-14.18981 14.78392,-18.7387 10.06001,-8.31311 21.18051,-12.1409 35.33392,-12.1623 11.95586,-0.0181 21.28636,2.68626 30.43541,8.82137 3.61052,2.42112 6.56459,4.0801 6.56459,3.68662 0,-1.52132 -5.9437,-9.98403 -9.53333,-13.57366 -11.93471,-11.9347 -31.59247,-16.82283 -46.72124,-11.61777 l -5.56766,1.91556 -3.03318,-7.44728 c -4.32737,-10.62489 -10.81015,-19.83582 -20.38013,-28.95668 -6.80847,-6.48895 -16.50999,-13.40789 -22.21234,-15.84141 -1.57252,-0.67109 8.80121,-9.85223 18.33521,-16.22734 52.76993,-35.28579 126.34577,-20.55955 160.71476,32.16713 5.16818,7.9287 12.39791,23.12714 12.39791,26.06307 0,1.98221 0.82979,1.7786 4.6612,-1.14377 5.59529,-4.26773 15.43629,-8.31025 23.09263,-9.48607 26.36592,-4.04912 51.8151,14.74607 55.64801,41.09817 l 0.6628,4.55693 8.34897,3.7602 c 4.59194,2.06811 14.81489,8.01571 22.71768,13.21689 26.59108,17.50078 40.39684,23.05635 59.86871,24.09177 11.07283,0.58879 25.56778,-0.75699 35.36062,-3.28306 3.22335,-0.83147 6.07302,-1.29936 6.33261,-1.03977 0.64788,0.64787 -13.10509,10.26315 -18.95614,13.25303 -2.6196,1.33861 -8.9196,3.83931 -14,5.55709 -7.84716,2.65329 -11.118,3.19107 -21.73709,3.57394 -17.37702,0.62652 -27.41885,-1.58506 -53.7286,-11.833 -22.04082,-8.58515 -27.83648,-10.16171 -33.9163,-9.22604 -4.62471,0.71173 -6.30656,1.52792 -11.81902,5.73567 -2.31735,1.76888 -6.78555,4.26011 -9.92932,5.53608 l -5.71594,2.31993 2.75427,2.87484 c 7.83451,8.17747 25.47768,17.86333 39.80364,21.85167 25.8071,7.18468 47.12376,6.68559 83.4667,-1.95422 46.13093,-10.96671 78.71841,-9.25741 108.58457,5.69556 11.66309,5.83931 21.57476,12.73085 28.73812,19.98149 l 5.73812,5.80804 -9.73812,-4.71983 C 849.41157,512.0821 834.08249,506.89363 820,503.85617 c -8.85119,-1.90911 -13.48355,-2.26269 -29.5,-2.25166 -17.61279,0.0121 -20.06811,0.24604 -33.62941,3.2037 -8.04618,1.75483 -22.27972,5.64434 -31.63009,8.64336 -34.25646,10.98736 -45.68273,13.08956 -70.2405,12.92283 -22.11308,-0.15013 -36.14955,-2.32575 -54.43069,-8.43665 -42.76297,-14.29452 -72.60215,-42.10496 -87.66453,-81.70428 L 509.9632,428.5 l 0.58284,5.5 c 2.66222,25.1222 15.83487,52.36082 35.41994,73.24195 15.26907,16.27953 34.05968,28.50032 54.03402,35.14196 17.93767,5.96443 25.21411,7.07047 46.5,7.06816 29.79701,-0.003 40.19537,-2.17378 80.82918,-16.87215 12.74395,-4.60984 28.57082,-9.64479 35.17082,-11.18878 10.71432,-2.50648 13.82138,-2.80393 29,-2.77633 18.59043,0.0338 30.46459,1.89938 44.73367,7.02817 9.91803,3.56488 27.6983,12.57538 36.39514,18.44394 8.76049,5.91151 23.63558,18.47424 20.87119,17.62672 -1.1,-0.33725 -6.5,-2.16708 -12,-4.0663 -41.45438,-14.31469 -85.34336,-13.97503 -125.24333,0.96925 -5.30258,1.98605 -22.49206,9.57135 -38.19886,16.85622 -42.98566,19.93691 -56.83261,24.83969 -79.08785,28.00257 -26.08896,3.70773 -60.22298,-0.20302 -82.13751,-9.41052 C 553.0746,592.48598 550,591.36176 550,591.56661 c 0,0.87283 15.09043,10.454 21.73597,13.80054 16.93152,8.52631 32.05381,11.70956 55.76403,11.73836 33.16381,0.0403 53.4133,-5.04968 87.12275,-21.89937 C 747.79956,578.6227 779.90998,570 808.4889,570 c 17.04686,0 27.188,1.71109 40.48189,6.83041 L 858.5,580.5 l -15,0.62354 c -8.25,0.34294 -18.91128,1.36504 -23.69174,2.27132 -26.01346,4.93166 -55.93011,17.4462 -89.91235,37.61156 -50.71492,30.09468 -87.28732,41.36975 -132.76461,40.93061 l -14.36871,-0.13874 -4.26513,5.43422 c -5.85707,7.46251 -16.43034,15.15756 -25.99746,18.92053 -6.67551,2.62564 -9.73839,3.21952 -18.5,3.58713 -5.775,0.2423 -12.525,-0.0445 -15,-0.63739 -4.4142,-1.05738 -4.54616,-1.0162 -6.92106,2.15964 -4.62056,6.17888 -20.79162,21.25532 -26.35185,24.5681 -8.54003,5.08815 -20.42261,9.92258 -28.63471,11.65005 -10.68943,2.24859 -26.19749,2.74348 -34.75081,1.10896 z"
       id="path1" />
  </g>
</svg>
