<?xml version="1.0" encoding="UTF-8" standalone="no"?>
<!-- Created with Inkscape (http://www.inkscape.org/) -->

<svg
   version="1.1"
   id="svg1"
   width="1408"
   height="768"
   viewBox="0 0 1408 768"
   sodipodi:docname="evade.svg"
   inkscape:version="1.4.2 (ebf0e940d0, 2025-05-08)"
   xmlns:inkscape="http://www.inkscape.org/namespaces/inkscape"
   xmlns:sodipodi="http://sodipodi.sourceforge.net/DTD/sodipodi-0.dtd"
   xmlns="http://www.w3.org/2000/svg"
   xmlns:svg="http://www.w3.org/2000/svg">
  <defs
     id="defs1" />
  <sodipodi:namedview
     id="namedview1"
     pagecolor="#ffffff"
     bordercolor="#000000"
     borderopacity="0.25"
     inkscape:showpageshadow="2"
     inkscape:pageopacity="0.0"
     inkscape:pagecheckerboard="0"
     inkscape:deskcolor="#d1d1d1"
     inkscape:zoom="0.34204449"
     inkscape:cx="663.65635"
     inkscape:cy="220.73152"
     inkscape:window-width="1920"
     inkscape:window-height="1003"
     inkscape:window-x="0"
     inkscape:window-y="0"
     inkscape:window-maximized="1"
     inkscape:current-layer="g1" />
  <g
     inkscape:groupmode="layer"
     inkscape:label="Image"
     id="g1">
    <path
       id="path1"
       style="fill:#000000"
       d="M 540.74023 1.1308594 C 539.63217 1.1255039 538.42655 1.4546415 536.96484 1.8925781 C 532.09846 3.3505836 528.72517 8.01348 529.68359 11.958984 C 530.02301 13.356286 535.18325 25.386627 541.15039 38.693359 C 547.11753 52.000092 552 63.1701 552 63.513672 C 552 64.07431 542.43911 68.806833 494.27344 92.089844 C 482.09256 97.97802 479.94202 99.363621 479.32031 101.73242 C 477.24074 109.65589 482.25448 114.23243 490.01562 111.49414 C 493.14918 110.38856 494.17911 110.33933 494.49414 111.2793 C 495.62921 114.66605 499.61358 129.09282 506.01562 153 C 513.92598 182.53962 521.08648 208.33908 521.50391 208.80469 C 521.65461 208.97279 526.27111 205.08395 531.76367 200.16211 C 550.33247 183.52276 567.34264 170.7247 586.36133 159.08398 C 590.13373 156.77502 593.45795 155.12396 593.74805 155.41406 C 594.03815 155.70416 596.67421 161.39381 599.60547 168.05664 L 604.93359 180.16992 L 594.7168 185.00391 C 589.0974 187.66196 571.9 195.9174 556.5 203.35156 L 528.5 216.86914 L 528.82422 226.70508 L 529.14844 236.54102 L 522.0918 239.95508 C 518.21085 241.83256 514.83354 243.16556 514.58594 242.91797 C 514.54847 242.8805 514.44187 242.69072 514.27734 242.36523 L 496.86719 252.10352 L 496.88672 252.15039 L 496.05859 252.55664 L 490.20703 255.82812 C 490.20703 255.82812 490.14182 255.7187 490.01758 255.50977 L 468.19336 266.18359 C 452.4119 273.90272 435.78716 281.95003 431.25 284.06445 C 426.71283 286.17886 421.87533 289.03287 420.5 290.4082 C 417.41695 293.49125 417.24984 297.77709 420.07227 301.36523 C 422.69372 304.69787 427.2007 304.84726 433.45117 301.81055 C 435.92882 300.60682 438.14179 299.81932 438.36914 300.06055 C 439.07091 300.80516 455.51154 352.28159 462.46289 375.5 C 466.0855 387.6 471.81367 406.59272 475.19336 417.70508 L 481.33789 437.9082 L 493.91992 426.19141 C 517.72294 404.02079 544.52038 381.58598 546.0625 382.53906 C 546.5778 382.85754 547.05404 385.67855 547.11914 388.80859 C 547.18422 391.93863 547.52172 395.79727 547.86914 397.38281 L 548.4375 399.98242 L 578.87109 374.95117 L 579.11523 375.71484 L 585.75195 370.69727 C 606.53632 354.97771 635.45463 336.30651 657.18555 324.57617 C 665.16959 320.26639 665.94711 320.03543 666.82617 321.69531 C 669.25356 326.27878 681.05167 353.28233 680.75586 353.57812 C 680.24304 354.09094 629.53221 378.78997 607.05469 389.47461 C 597.21929 394.14984 588.63946 398.06613 586.53516 398.85547 L 586.54688 398.88867 L 564.67773 409.11328 C 564.76021 409.37012 564.79455 409.5245 564.77148 409.55859 L 564.76953 409.55859 L 564.76758 409.56055 C 564.6199 409.70605 539.09281 422.1998 508.03906 437.32422 C 476.9853 452.44863 450.23149 465.90753 448.58594 467.23242 C 446.13234 469.20789 445.61242 470.34352 445.70312 473.54297 C 445.82984 478.01366 449.49335 482 453.47461 482 C 454.77477 482 461.05866 479.54802 467.4375 476.55078 L 479.03516 471.10156 L 485.14062 483.30078 C 502.87007 518.72564 531.50282 572.41416 551.25195 607.26172 C 560.15644 622.97379 561.50291 624.86722 562.91016 623.68359 C 583.2707 606.55833 603.0491 592.42883 616.49414 583.21289 L 615.79492 582.46094 L 626.23438 575.85742 C 627.0954 575.37775 632.37303 571.01211 632.64258 571.01758 C 632.69597 571.02446 632.82823 571.21537 633.02148 571.56445 L 654.24805 558.13672 C 654.08873 557.7026 654.00172 557.43588 654.00195 557.36328 C 654.00513 556.27093 674.36436 543.45398 692 533.44141 C 705.52222 525.76422 746.26036 505 747.80078 505 C 748.62623 505 771 554.02333 771 555.83203 C 771 556.36635 769.7625 557.26048 768.25 557.81836 C 766.7375 558.37624 756.05 562.95657 744.5 567.99609 C 732.95 573.0356 712.475 581.88864 699 587.66992 C 685.525 593.45121 673.96869 598.40218 673.31836 598.67188 C 672.96271 598.81937 672.44621 598.57043 671.91992 598.06055 C 667.3192 600.14444 656.00755 605.47588 648.95117 608.81055 C 648.98328 608.93557 649 609.02628 649 609.08008 C 649 609.37888 644.21247 611.61921 638.36133 614.05859 C 624.08557 620.01023 623.97262 620.20971 627.45508 633.2793 C 634.86243 661.07898 651.48319 697.91037 665.46484 717.50391 C 672.69393 727.63456 683.54726 737.99364 692.5 743.30859 C 704.51618 750.4422 710.84595 752.11692 728.13477 752.73828 C 743.95244 753.30677 755.70517 752.36984 782.5 748.40625 C 812.94999 743.90197 829.15209 744.14652 840.22266 749.27344 C 846.41276 752.14015 853.04297 758.54907 855.53711 764.08008 C 856.50915 766.23569 857.61444 768 857.99414 768 C 859.12636 768 878.42651 759.85391 879.35938 758.98242 C 879.83401 758.539 879.44095 755.83119 878.48047 752.93945 C 873.87776 739.082 880.88365 723.31692 898.70703 707.42969 C 902.44293 704.09962 911.8 696.25041 919.5 689.98828 C 966.32627 651.90623 976.18476 636.98645 976.31836 604 C 976.40165 583.43306 971.79941 561.88601 961.90039 536.5 C 957.22298 524.50481 941.13183 491.9075 938.39453 488.88281 C 937.45755 487.84746 935.51545 487 934.08008 487 C 932.6447 487 922.70125 490.78143 911.98438 495.4043 C 907.21517 497.46155 902.76862 499.29118 899.26367 500.6543 C 899.2621 500.65491 899.25938 500.65564 899.25781 500.65625 L 865.74805 515.26562 C 865.64654 515.31309 865.2318 515.48934 865.125 515.53906 C 855.69628 519.92906 826.14273 532.91027 810.10156 539.63867 C 804.38282 542.03737 799.43282 543.98821 799.10156 543.97461 C 798.4857 543.94933 777.03583 497.83513 776.25391 494.85547 C 775.77148 493.01712 777.8345 492.13426 802 483.85352 C 819.72352 477.78023 847.65375 469.77979 849.67969 470.19531 C 849.79412 470.21878 849.94877 470.34611 850.13867 470.56641 L 875.75 464.37305 C 875.69594 464.11993 875.6861 463.96908 875.72656 463.93164 C 875.86985 463.79908 880.95352 463.16007 881.58203 462.96289 L 890.74609 460.74805 L 890.97266 461.41211 C 905.66274 458.20809 934.88068 452.916 957.5 450.41406 C 965.75 449.50152 972.725 448.54864 973 448.29492 C 974.31984 447.07722 973.26653 404.80529 971.63477 393.5 C 966.87155 360.49908 957.15296 330.18576 941.01562 298 C 935.20116 286.40311 925.2238 268.73884 920.92969 262.4375 L 918.16211 258.375 L 928.54102 253.21289 C 940.14103 247.44382 942.57973 244.90867 941.5918 239.64258 C 940.90406 235.9766 938.7942 233.63033 935.19141 232.53125 C 932.75613 231.78833 928.41179 233.74009 879 257.76172 C 866.075 264.04523 844.7 274.37582 831.5 280.71875 C 818.3 287.06168 807.07328 292.64404 806.55078 293.125 C 805.44649 294.14151 804.49076 294.40625 803.44531 293.68164 L 781.55859 303.95898 C 781.68296 304.32789 781.74358 304.55275 781.72852 304.60156 L 781.72852 304.60352 L 781.72656 304.60547 L 781.72656 304.60742 L 781.72461 304.60938 C 781.59594 304.73804 774.06856 308.4288 764.99609 312.8125 C 755.92361 317.1962 738.6481 325.55797 726.60742 331.39258 C 714.56674 337.22719 704.64093 342 704.54883 342 C 704.12263 342 688.93977 308.7282 689.23242 308.43555 C 690.33244 307.33553 713.80453 297.90469 726.5 293.46289 C 737.76976 289.51992 753.52798 284.69114 763.12695 282.08984 L 763.05859 281.76172 L 794.00977 274.97461 C 793.99307 274.91212 793.98382 274.86667 793.98438 274.8418 C 793.99265 274.48014 798.3875 273.40884 803.75 272.46094 C 809.1125 271.51304 814.10191 270.41873 814.83789 270.0293 C 815.81699 269.51122 814.56437 267.33256 810.16797 261.91016 C 805.15481 255.72707 804.43633 254.38317 805.83008 253.79102 C 810.24763 251.91418 849.67664 245.26227 871.26758 242.75195 L 882.03516 241.5 L 879.31055 237.5 C 875.35274 231.69049 863.63018 213.11123 839.24219 174 C 827.41024 155.025 815.3156 135.72087 812.36523 131.10156 C 809.41486 126.48224 807 122.37412 807 121.97266 C 807 121.5712 808.36456 120.6775 810.0332 119.98633 C 813.71409 118.46166 817 114.50088 817 111.58789 C 817 108.66412 814.32426 105.07418 811.2832 103.91797 C 808.36284 102.80765 806.47712 103.62117 762 125.17383 C 751.10619 130.45274 741.45164 135.0657 736.45898 137.39062 C 736.46929 137.44643 736.47461 137.47461 736.47461 137.47461 L 734.9043 138.10938 C 734.90286 138.11003 734.90378 138.11067 734.90234 138.11133 C 733.6641 138.67893 732.94673 138.99107 732.86914 138.99219 C 732.85081 138.99243 732.82795 138.98217 732.80078 138.96094 L 713.5 146.76367 L 714.00391 147.94727 L 711.11719 149.43945 L 708.23047 150.93164 L 702.03906 143.9668 C 698.63399 140.1355 695.42346 137 694.9043 137 C 694.38514 137 688.00721 139.88072 680.73047 143.40234 C 638.66159 163.76181 627.93268 168.88562 626.30664 169.39062 C 624.80915 169.85572 623.52842 167.85589 618.83008 157.72656 C 614.93229 149.32319 613.52537 145.30209 614.33008 144.86523 C 625.73663 138.67276 675.00579 126 687.67578 126 C 689.50459 126 691 125.53812 691 124.97461 C 691 124.4111 679.29409 105.22773 664.98633 82.34375 L 638.97266 40.736328 L 642.65234 37.554688 C 647.37217 33.474722 647.7328 28.886938 643.61133 25.341797 C 642.114 24.053842 640.18491 23 639.32422 23 C 638.46353 23 626.00005 28.689493 611.62891 35.642578 C 574.03786 53.829988 570.8523 55.259897 570 54.333984 C 569.57782 53.87533 566.19301 46.75 562.47852 38.5 C 548.50551 7.4655637 545.54183 1.1540666 540.74023 1.1308594 z " />
  </g>
</svg>
