<?xml version="1.0" encoding="UTF-8" standalone="no"?>
<!-- Created with Inkscape (http://www.inkscape.org/) -->

<svg
   version="1.1"
   id="svg1"
   width="1408"
   height="768"
   viewBox="0 0 1408 768"
   sodipodi:docname="flags.svg"
   inkscape:version="1.4.2 (ebf0e940d0, 2025-05-08)"
   xmlns:inkscape="http://www.inkscape.org/namespaces/inkscape"
   xmlns:sodipodi="http://sodipodi.sourceforge.net/DTD/sodipodi-0.dtd"
   xmlns="http://www.w3.org/2000/svg"
   xmlns:svg="http://www.w3.org/2000/svg">
  <defs
     id="defs1" />
  <sodipodi:namedview
     id="namedview1"
     pagecolor="#ffffff"
     bordercolor="#000000"
     borderopacity="0.25"
     inkscape:showpageshadow="2"
     inkscape:pageopacity="0.0"
     inkscape:pagecheckerboard="0"
     inkscape:deskcolor="#d1d1d1"
     showgrid="false"
     inkscape:zoom="0.34204449"
     inkscape:cx="457.54282"
     inkscape:cy="571.56307"
     inkscape:window-width="1920"
     inkscape:window-height="1003"
     inkscape:window-x="0"
     inkscape:window-y="0"
     inkscape:window-maximized="1"
     inkscape:current-layer="g1" />
  <g
     inkscape:groupmode="layer"
     inkscape:label="Image"
     id="g1">
    <path
       style="fill:#000000"
       d="M 538.45863,766.12034 C 507.9509,721.19614 575.402,669.93991 588.21929,623.55827 617.99436,568.09804 647.57075,512.53055 677.5,457.1534 602.59472,313.91792 523.5271,172.57955 450.78476,28.377267 476.92886,-47.018115 523.58351,64.788562 538.84633,95.662654 594.1307,198.99557 648.05548,303.08681 704.08611,406 776.99708,273.6706 843.81509,137.76496 918.4546,6.472645 984.83561,-16.116204 941.8799,74.664509 920.82672,99.866109 857.61536,218.82845 794.32063,337.74661 730.71739,456.5 780.09954,551.4247 832.84561,644.64827 881.63922,739.82791 869.53078,804.6457 818.17505,732.87575 809.31983,700.26489 774.04284,635.62997 739.89524,570.3446 704.11067,506.00985 657.10004,590.66132 612.70141,676.78484 565.29,761.22775 c -7.16682,6.18954 -17.87337,8.85849 -26.83137,4.89259 z M 1391,415.98634 C 1201.1112,389.03681 1011.0471,363.32375 821.11453,336.6792 870.5225,243.6038 919.9721,150.54446 969.90494,57.750633 1116.4117,173.64177 1261.0698,292.30728 1405.7334,410.57539 c 9.3335,8.20742 -14.6594,9.93863 -14.7334,5.41095 z M 0.98024935,415.4762 C 33.361423,378.74488 80.187573,349.44206 118.39192,315.68218 225.02459,229.73755 330.51655,142.31635 438.05439,57.533615 488.07413,150.29561 537.80409,243.26314 586.7329,336.59477 392.1858,363.45992 197.69295,391.86607 2.9549775,416.63564 Z"
       id="path1" />
  </g>
</svg>
