<?xml version="1.0" encoding="UTF-8" standalone="no"?>
<!-- Created with Inkscape (http://www.inkscape.org/) -->

<svg
   version="1.1"
   id="svg1"
   width="1408"
   height="768"
   viewBox="0 0 1408 768"
   sodipodi:docname="repair.svg"
   inkscape:version="1.4.2 (ebf0e940d0, 2025-05-08)"
   xmlns:inkscape="http://www.inkscape.org/namespaces/inkscape"
   xmlns:sodipodi="http://sodipodi.sourceforge.net/DTD/sodipodi-0.dtd"
   xmlns="http://www.w3.org/2000/svg"
   xmlns:svg="http://www.w3.org/2000/svg">
  <defs
     id="defs1" />
  <sodipodi:namedview
     id="namedview1"
     pagecolor="#ffffff"
     bordercolor="#000000"
     borderopacity="0.25"
     inkscape:showpageshadow="2"
     inkscape:pageopacity="0.0"
     inkscape:pagecheckerboard="0"
     inkscape:deskcolor="#d1d1d1"
     inkscape:zoom="0.96744791"
     inkscape:cx="779.37012"
     inkscape:cy="542.14805"
     inkscape:window-width="1920"
     inkscape:window-height="1003"
     inkscape:window-x="0"
     inkscape:window-y="0"
     inkscape:window-maximized="1"
     inkscape:current-layer="g1" />
  <g
     inkscape:groupmode="layer"
     inkscape:label="Image"
     id="g1">
    <path
       id="path1"
       style="fill:#000000"
       d="M 807.00195 122 C 804.29166 122 799.72332 122.92588 796.84961 124.05859 C 783.01307 129.51245 762.06081 147.14035 749.375 164 C 735.18312 182.86125 730.66224 202.0018 742.28711 216.59766 C 742.38058 216.71502 742.49224 216.82884 742.61914 216.9375 L 750.72852 227.01367 C 782.45273 266.43593 822.49676 305.41032 861.35547 334.68359 C 868.97621 340.4245 875.41744 344.9146 875.66992 344.66211 C 875.92241 344.40962 876.77059 341.46014 877.55273 338.10742 C 880.6917 324.65188 891.61944 307.32565 906.86133 291.63672 C 921.42761 276.6432 935.20267 266.96956 948.39453 262.4707 C 952.62303 261.02865 955.37296 259.55316 955.18555 258.82812 C 955.01233 258.158 951.31839 253.07398 946.97656 247.5293 C 922.14968 215.82445 894.06712 186.90325 863 161.04492 C 851.53726 151.50405 835.25769 138.8152 828.30859 133.88086 C 822.32328 127.70611 811.32839 122 807.00195 122 z M 481.9668 139.98633 C 479.36849 139.92931 477.01205 141.65674 473.53906 145.25 C 462.4297 156.74409 441.97944 180.44115 442.30859 181.43945 C 442.50088 182.02265 444.1988 182.725 446.08008 183 C 449.29738 183.4703 449.5297 183.76734 450 188 C 450.48775 192.38972 450.61028 192.52692 455 193.58008 C 459.46941 194.65236 459.50197 194.69145 459.80469 199.33008 C 460.06864 203.37464 460.40364 204.00187 462.30469 204.01367 C 467.85716 204.04821 469 205.00134 469 209.59766 C 469 213.32175 469.33007 214.0286 471.25 214.41797 C 479.47635 216.0863 479 215.71926 479 220.40625 L 479 224.77344 L 483.5 225.44727 C 485.975 225.81842 488.05851 226.65675 488.12891 227.31055 C 488.19937 227.96435 488.31191 230.03292 488.37891 231.90625 C 488.49265 235.0844 488.8011 235.3855 493 236.40625 C 497.3781 237.47056 497.50769 237.61578 497.80664 241.74609 C 498.12385 246.12871 498.3373 246.30268 504.5 247.2207 C 506.11666 247.46153 506.55767 248.40781 506.80078 252.16016 L 507.10156 256.80273 L 511.80078 257.65625 L 516.5 258.50977 L 516.80469 263.25586 C 517.0867 267.64622 517.31095 268.00531 519.80469 268.07031 C 525.12697 268.2091 526.33798 269.30857 526.42188 274.07422 L 526.5 278.5 L 531 279 L 535.5 279.5 L 535.80273 284.19727 L 536.10547 288.89258 L 540.50195 289.55273 L 544.89844 290.21289 L 545.19922 294.85547 C 545.46559 298.97261 545.78363 299.53111 548 299.7793 C 554.5924 300.51753 554.87414 300.75275 555.19531 305.75586 L 555.5 310.5 L 559.75 310.80664 L 564 311.11523 L 564 315.96289 L 564 320.8125 L 568.94922 321.49219 L 573.89844 322.17383 L 574.19922 326.83594 C 574.49815 331.4633 574.53075 331.50384 578.5 332 C 582.46751 332.49594 582.50247 332.53708 582.80078 337.15039 L 583.10156 341.80273 L 587.80078 342.65625 C 592.46788 343.50424 592.50342 343.54064 593 347.99609 C 593.39149 351.50861 593.93405 352.54607 595.5 352.7793 C 601.9036 353.73305 602 353.81854 602 358.5 C 602 363.2323 602.28912 363.4692 609 364.2207 C 611.2166 364.46891 611.53428 365.02662 611.80078 369.14648 C 612.11563 374.01396 613.22324 374.95233 618.69531 374.98633 C 620.60239 374.99819 620.93052 375.62346 621.19531 379.75 C 621.46667 383.97895 621.77424 384.53006 624 384.7793 C 630.5904 385.51731 630.87418 385.7531 631.19531 390.74609 C 631.44257 394.59058 631.87636 395.53744 633.5 395.7793 C 639.8184 396.72052 640 396.86973 640 401.0918 L 640 405.14453 L 642.75 402.98438 C 649.37304 397.77938 685.39659 364.46531 701.68555 348.48242 L 719.5 331.00391 L 716 327.93555 C 712.51671 324.88276 679.49806 297.91577 606.04297 238.13086 C 519.58205 167.76054 495.59763 148.29908 490.3418 144.25 C 486.74126 141.47615 484.25942 140.03664 481.9668 139.98633 z M 897.26367 155 C 894.84681 155 891.88493 155.50315 890.68359 156.11914 C 888.10161 157.44307 882 163.07156 882 164.12891 C 882 164.5342 891.1125 173.87531 902.25 184.88672 L 922.5 204.9082 L 926.7793 200.66211 C 931.44641 196.03103 932.75616 191.84512 931.55078 185.41992 C 931.00891 182.53149 928.66099 179.47094 920.75195 171.3418 C 908.23225 158.4737 903.24043 155 897.26367 155 z M 959.13281 269.2832 C 955.62544 269.26371 950.78588 270.78195 944.64453 273.85938 C 934.24154 279.07232 926.80405 284.72568 915.24805 296.20703 C 897.73342 313.60851 886.06923 332.87903 885.65625 345.09375 C 885.56285 347.85604 886.08226 350.38958 886.95898 351.44727 C 888.13271 352.86323 889.59606 353.13058 894.46875 352.82031 C 905.99629 352.08629 921.5825 342.26196 938.07422 325.33008 C 951.69507 311.3457 961.10886 297.30792 964.40625 286.06836 C 967.66433 274.9628 965.82871 269.32042 959.13281 269.2832 z M 781.36328 275.97852 L 768.57031 290.73828 C 738.67911 325.22428 700.80102 363.17343 656.91797 402.60156 C 647.7981 410.7956 631.8231 425.13905 621.41797 434.47656 C 600.04755 453.65426 468.71121 583.61275 465.25586 589 C 461.68122 594.57324 462.17363 600.41361 466.82422 607.5957 C 471.42729 614.70442 487.43031 630.01401 493.28906 632.91406 C 498.42914 635.45836 504.46367 635.58981 508.69531 633.25 C 510.43603 632.2875 517.38209 625.65 524.12891 618.5 C 530.87574 611.35 560.06977 580.975 589.00586 551 C 636.44939 501.85308 655.10039 481.76482 686.5 445.99023 C 739.4076 385.71088 773.68307 350.5984 817.39258 311.9043 C 817.88388 311.46937 814.50888 307.6113 809.89258 303.33203 C 805.27627 299.05277 796.96913 291.14859 791.43164 285.76562 L 781.36328 275.97852 z M 768.25781 371 C 765.91901 371 689 455.22988 689 457.79102 C 689 458.29947 690.9125 459.11677 693.25 459.60742 C 697.3697 460.47215 697.51533 460.63638 698 464.95703 C 698.48659 469.29478 698.6207 469.44371 703 470.5 C 707.37733 471.55581 707.51363 471.7061 708 476.0332 C 708.39055 479.5078 708.9378 480.54663 710.5 480.7793 C 716.88648 481.7305 717 481.8296 717 486.41211 C 717 491.13637 717.92673 492 722.99805 492 C 726.25536 492 726.9318 493.1962 726.23828 497.73242 C 725.70314 501.23274 725.93907 501.41889 732.19727 502.45703 C 735.79292 503.0535 735.90221 503.19928 736.19727 507.78516 C 736.46697 511.97687 736.77732 512.5304 739 512.7793 C 745.6899 513.52845 746 513.77866 746 518.41211 C 746 523.15332 746.9218 524 752.08203 524 C 754.90861 524 755 524.15436 755 528.89258 L 755 533.7832 L 759.75 534.64648 L 764.5 535.50977 L 764.80469 540.25586 C 765.0774 544.50148 765.36064 545 767.49023 545 C 768.79929 545 771.05409 545.44952 772.50195 546 C 774.85775 546.89568 775.10044 547.44742 774.81641 551.25 C 774.52581 555.14057 774.71096 555.52297 777 555.7793 C 783.58648 556.51687 784 556.8275 784 561.01953 C 784 566.09685 784.83391 566.08564 794.46875 560.88867 L 802.08984 556.77734 L 801.40234 552.13867 C 800.38702 545.28134 798.37942 540.2232 794.00781 533.50586 C 788.42745 524.93118 786.9991 520.91144 787 513.78125 C 787.00114 504.67612 790.67483 497.60365 801.63281 485.60547 C 816.32026 469.52378 816.77698 467.00938 806.92383 456.41797 C 797.39794 446.17835 797.57116 443.65189 809.11133 424.4375 L 817.38086 410.66797 L 813.43945 407.24219 C 803.86297 398.91811 769.05878 371 768.25781 371 z M 829.71094 411.96484 C 828.87152 412.01837 828.11828 412.28955 827.41406 412.76562 C 825.6409 413.96433 808.99981 442.07783 809.00781 443.86133 C 809.01182 444.76282 811.48717 448.15094 814.50977 451.39062 C 823.09149 460.58868 824.80202 469.45736 819.64258 477.99805 C 818.48039 479.92189 813.8113 485.51378 809.26562 490.42578 C 799.44061 501.04252 796 507.28289 796 514.48633 C 796 518.88305 796.68843 520.67217 801.03125 527.54102 C 807.66421 538.03208 809.88698 545.56801 811.02539 561.42578 C 812.09727 576.35687 814.28736 584.04037 819.97852 592.8457 C 822.23251 596.33307 825.09538 599.45803 828.66797 602.30273 L 836.9082 579.07227 C 836.67255 578.3544 836.49306 577.62563 836.375 576.89062 C 835.56128 571.82467 849.16609 511.0654 852.66992 504.11719 C 855.93561 497.6412 861.57439 493.517 867.78125 492.04492 L 881.93359 452.14844 C 873.82892 445.07287 861.15436 434.69918 840.5332 417.73242 C 835.5166 413.60483 832.22919 411.80426 829.71094 411.96484 z M 900.03711 475.4043 L 891.06641 500.68945 C 894.55969 505.50983 896.41905 511.97266 895.59766 517.10938 C 894.67578 522.87449 871.27513 580.95125 868.30469 584.8457 C 866.89016 586.70024 863.87908 589.05789 861.61523 590.08594 C 860.84676 590.43492 859.94599 590.76466 859.01367 591.04688 L 859.01172 591.04688 L 850.61719 614.71094 C 855.22848 617.63417 858.43474 621.05052 863.65234 627.73242 C 871.34351 637.58207 876.01149 642.42638 880.37305 645.08594 C 884.14942 647.38867 888.08961 647.52275 892.03516 645.48242 C 896.34375 643.25436 896.72132 639.99942 893.50391 632.83008 C 888.81244 622.37608 890.46775 617.69259 904.54883 601.56641 C 916.79234 587.54467 921.67452 577.97775 926.5293 558.5 C 928.44851 550.8 930.84374 543.375 931.85156 542 C 936.73638 535.33544 944.64173 533.33799 953.5 536.5293 C 960.66398 539.11021 964.14916 538.36511 965.84961 533.89258 C 967.27616 530.14046 964.38424 524.52919 957.89258 518.45312 C 949.9319 511.00206 943.84924 507.16271 930.66797 501.27148 C 912.29538 493.06004 905.07005 487.06529 900.3457 476.11914 C 900.24065 475.87574 900.13759 475.63862 900.03711 475.4043 z " />
  </g>
</svg>
