<?xml version="1.0" encoding="UTF-8" standalone="no"?>
<!-- Created with Inkscape (http://www.inkscape.org/) -->

<svg
   version="1.1"
   id="svg1"
   width="1408"
   height="768"
   viewBox="0 0 1408 768"
   sodipodi:docname="swords.svg"
   inkscape:version="1.4.2 (ebf0e940d0, 2025-05-08)"
   xmlns:inkscape="http://www.inkscape.org/namespaces/inkscape"
   xmlns:sodipodi="http://sodipodi.sourceforge.net/DTD/sodipodi-0.dtd"
   xmlns="http://www.w3.org/2000/svg"
   xmlns:svg="http://www.w3.org/2000/svg">
  <defs
     id="defs1" />
  <sodipodi:namedview
     id="namedview1"
     pagecolor="#ffffff"
     bordercolor="#000000"
     borderopacity="0.25"
     inkscape:showpageshadow="2"
     inkscape:pageopacity="0.0"
     inkscape:pagecheckerboard="0"
     inkscape:deskcolor="#d1d1d1"
     inkscape:zoom="0.48372396"
     inkscape:cx="770.06729"
     inkscape:cy="656.36608"
     inkscape:window-width="1856"
     inkscape:window-height="971"
     inkscape:window-x="26"
     inkscape:window-y="23"
     inkscape:window-maximized="0"
     inkscape:current-layer="g1" />
  <g
     inkscape:groupmode="layer"
     inkscape:label="Image"
     id="g1">
    <path
       id="path1"
       style="fill:#000000"
       d="M 1179.7031 0.99609375 C 1179.0048 0.96753316 1177.0977 2.1712532 1174.25 4.4609375 C 1096.3299 67.112622 1014.3217 103.44014 934.78516 110.53906 L 927.07227 111.22852 L 913.19922 127.86328 C 853.89394 198.97805 784.96997 267.05035 712.82812 325.75781 C 708.60886 329.19136 704.68912 332 704.11719 332 C 702.07827 332 663.60174 299.56604 636 274.58008 C 614.71871 255.3156 551.42155 192.01365 533.42773 172 C 521.00524 158.18307 502.44671 136.68656 486.80859 118 L 481.36914 111.5 L 466.86719 109.85938 C 391.70863 101.356 315.82468 68.098917 244.1875 12.265625 C 236.86592 6.5592603 230.32927 1.6786364 229.66016 1.421875 C 228.79485 1.0898373 228.53116 2.1900682 228.74805 5.2285156 C 231.42443 42.722201 240.88098 74.868879 259.12695 108.5 C 292.20734 169.47404 346.54328 223.42317 448.5 296.52344 C 486.30332 323.62742 561.55753 372.68531 599.70508 395.09375 C 604.7675 398.06748 608.92998 400.75429 608.95508 401.06445 C 609.05673 402.32131 559.15337 433.99091 529.51562 451.47852 C 508.6416 463.79514 477.99338 481 476.92773 481 C 476.55728 481 470.73534 472.1125 463.98828 461.25 C 450.58023 439.66357 447.6396 435.97081 441.47852 432.98828 C 432.9399 428.8548 419.71267 431.27911 413.3125 438.15039 C 407.78256 444.08739 405.46561 455.30075 408.16797 463.05273 C 408.81055 464.89605 414.56874 474.75187 420.96289 484.95312 C 427.35705 495.15439 432.90864 504.02477 433.30078 504.66602 C 433.66096 505.25501 415.96682 517.02376 381.28906 539.27344 L 419.57617 600.0332 C 425.29594 596.40251 431.26693 592.61185 437.5 588.65625 C 455.65 577.13799 471.08981 567.66632 471.81055 567.60742 C 473.51381 567.46816 482.99616 583.03505 486.84375 592.28711 C 495.80792 613.84268 494.80408 640.56315 484.24414 661.5 C 479.72207 670.46577 473.8314 678.3477 465.35547 686.77539 C 447.68782 704.34248 423.87675 715.7808 398.5 718.89062 C 370.21699 722.35662 343.21366 716.00315 319.69727 700.34766 C 311.01951 694.57064 295.97982 681.1516 296.01172 679.21484 C 296.01875 678.78716 307.33197 671.40764 349.7832 644.38086 L 311.54883 583.70703 C 278.31589 604.82458 253.38244 620.64017 251.14844 622.01172 C 245.99015 625.17861 245.61725 625.25526 240.82227 624.14844 C 233.98756 622.5708 229.37843 622.75458 223.5 624.83789 C 216.62135 627.27567 191.53032 643.4402 188.54102 647.35938 C 183.97762 653.34228 182.04425 659.02337 182.03125 666.5 C 182.01638 675.03472 183.40008 678.22734 195.24609 697 C 204.6484 711.90007 209.82228 716.92431 218.43164 719.51562 C 228.74784 722.62068 237.12454 720.88921 249.44922 713.10547 C 253.0248 710.84728 256.22288 709 256.55469 709 C 256.88649 709 261.73395 713.65803 267.32812 719.35156 C 293.17823 745.66077 324.74039 761.42686 361.60938 766.44727 C 412.72098 773.40708 464.83103 756.14718 500.4707 720.45508 C 521.50843 699.3864 534.1215 676.16169 539.67383 648.26953 C 542.26093 635.27317 542.01963 611.70067 539.16211 598.3125 C 535.54602 581.37026 527.79902 562.00098 520.03906 550.5 C 518.55467 548.3 517.04452 545.98976 516.68359 545.36719 C 516.26461 544.64448 519.56164 542.76899 525.80078 540.17969 C 568.58952 522.42193 671.62544 472.73614 699.69727 456.32422 L 703.89648 453.87109 L 718.74219 461.86133 C 759.9815 484.05715 840.40562 522.59261 880.77734 539.50195 L 892.05273 544.22656 L 890.00195 547.36328 C 872.58585 574.00414 864.27048 605.62152 866.99023 634.86328 C 868.77496 654.05216 872.20236 666.37118 880.24219 682.5 C 893.46103 709.01851 914.43539 730.8212 941.7832 746.47266 C 990.50989 774.3595 1054.8846 774.94414 1103.4453 747.93945 C 1118.1787 739.74615 1127.5412 732.57077 1140.5293 719.51953 L 1151.5586 708.4375 L 1159.0293 713.24219 C 1171.6818 721.38025 1182.5013 722.96861 1193.1641 718.25195 C 1200.2901 715.09978 1204.3726 710.71355 1213.0059 696.93164 C 1224.0921 679.234 1226.1415 674.51366 1226.1875 666.58008 C 1226.2255 659.98081 1223.101 651.05096 1219.2031 646.61523 C 1216.8686 643.9586 1192.8717 628.27289 1187.5215 625.90625 C 1181.3311 623.16794 1174.9064 622.53354 1168.0605 623.98633 L 1162.123 625.24609 L 1093.8672 581.85547 L 1055.6094 642.57031 C 1064.1871 648.04565 1077.1241 656.29388 1087.7461 663.05859 C 1101.082 671.55161 1111.9961 678.90094 1111.9961 679.39062 C 1112.002 681.14282 1097.3299 694.59994 1089.7148 699.82617 C 1078.8054 707.31323 1066.7243 712.70062 1053.1543 716.13281 C 1028.684 722.32195 999.74935 720.07732 977.57227 710.26758 C 927.3407 688.0483 903.59253 639.62013 920.59961 594.08984 C 923.01759 587.61656 934.7587 567 936.02734 567 C 936.5264 567 963.77816 584.06278 985.86133 598.14844 L 1024.0762 537.50195 C 1010.9923 529.18961 1000.7945 522.71268 995.84375 519.57227 L 974.18555 505.83594 L 986.23047 486.66797 C 1000.2257 464.39496 1001 462.78143 1001 455.89844 C 1001 440.98033 991.37997 431 977 431 C 969.8228 431 964.01236 433.27548 959.76562 437.74805 C 958.32816 439.26195 951.5605 449.47684 944.72656 460.44922 C 937.89261 471.42161 931.8804 480.53987 931.36719 480.71094 C 930.21813 481.09396 885.12682 455.43849 860 440.10547 C 832.4848 423.31501 799.09228 401.65955 799.55664 400.9082 C 799.78075 400.54559 803.23499 398.31755 807.23242 395.95703 C 820.95426 387.85416 856.51944 365.66604 879 351.18359 C 958.03499 300.26762 1022.0425 252.43851 1067.5156 210.31641 C 1128.062 154.23199 1164.6229 94.818735 1175.9902 34.042969 C 1177.6772 25.022981 1180 6.0648422 1180 1.3125 C 1180 1.107953 1179.8987 1.0040907 1179.7031 0.99609375 z " />
  </g>
</svg>
