<?xml version="1.0" encoding="UTF-8" standalone="no"?>
<!-- Created with Inkscape (http://www.inkscape.org/) -->

<svg
   version="1.1"
   id="svg1"
   width="1408"
   height="768"
   viewBox="0 0 1408 768"
   sodipodi:docname="target.svg"
   inkscape:version="1.4.2 (ebf0e940d0, 2025-05-08)"
   xmlns:inkscape="http://www.inkscape.org/namespaces/inkscape"
   xmlns:sodipodi="http://sodipodi.sourceforge.net/DTD/sodipodi-0.dtd"
   xmlns="http://www.w3.org/2000/svg"
   xmlns:svg="http://www.w3.org/2000/svg">
  <defs
     id="defs1" />
  <sodipodi:namedview
     id="namedview1"
     pagecolor="#ffffff"
     bordercolor="#000000"
     borderopacity="0.25"
     inkscape:showpageshadow="2"
     inkscape:pageopacity="0.0"
     inkscape:pagecheckerboard="0"
     inkscape:deskcolor="#d1d1d1"
     inkscape:zoom="0.92400568"
     inkscape:cx="704"
     inkscape:cy="345.77709"
     inkscape:window-width="1856"
     inkscape:window-height="971"
     inkscape:window-x="26"
     inkscape:window-y="23"
     inkscape:window-maximized="0"
     inkscape:current-layer="g1" />
  <g
     inkscape:groupmode="layer"
     inkscape:label="Image"
     id="g1">
    <path
       id="path1"
       style="fill:#000000"
       d="M 721.39648 82.148438 L 721.39648 118.0918 C 723.47792 118.2014 725.56137 118.33423 727.64844 118.49023 C 782.02033 122.55445 836.8857 144.5066 877.02344 178.25977 L 883.4668 183.67969 L 851.19336 215.26562 C 833.44317 232.63829 818.54914 246.85156 818.0957 246.85156 C 817.64227 246.85156 812.87713 243.72618 807.50586 239.9043 C 796.19018 231.85272 779.29667 223.11027 765.43945 218.13672 C 751.06638 212.97803 736.25641 209.77124 721.39648 208.45898 L 721.39648 245.68945 C 744.16625 247.6271 764.1973 254.54428 783.2793 266.95312 C 786.49153 269.04201 789.90827 271.53913 790.87109 272.50195 L 792.62109 274.25195 L 768.23242 298.43164 C 741.16079 325.27136 741.51047 324.79698 742.0957 333.80664 C 742.46821 339.54154 743.81349 341.94362 749.20312 346.50781 C 754.27579 350.80358 760.61994 351.93918 766.73242 349.64453 C 770.5958 348.1942 773.05537 345.96909 794.94336 324.10938 L 818.91992 300.16211 L 822.26562 304.40039 C 829.90544 314.07518 838.737 332.89944 843.02344 348.65039 C 844.73488 354.93924 845.95751 361.57212 846.70312 368.36719 L 883.63086 368.36719 C 880.69447 340.21194 871.07518 312.78079 855.64062 289.33203 C 852.49374 284.55117 849.13282 279.85157 848.16992 278.88867 C 843.92883 274.64759 842.08266 276.99937 877.20898 241.87305 L 909.37891 209.70312 L 914.02734 215.30859 C 926.3312 230.14217 939.96993 251.42242 948.67969 269.37891 C 960.17653 293.08141 970.33298 328.66016 973.2832 355.56055 C 973.75116 359.82738 974.11797 364.09702 974.38281 368.36719 L 1010.0918 368.36719 C 1009.609 359.60754 1008.7918 350.97826 1007.6348 342.67188 C 999.80775 286.47909 974.62281 231.25538 936.98633 187.75195 L 934.69141 185.09766 L 947.82617 171.25586 C 960.81791 157.56476 960.97226 157.35937 961.97656 152.41602 C 964.21041 141.42063 954.73705 129.76584 943.82422 130.08398 C 936.73639 130.29062 935.26929 131.28086 921.55078 145.13867 L 908.63086 158.19141 L 905.95703 156.23438 C 904.48667 155.15884 901.18668 152.55836 898.62305 150.45508 C 853.43612 113.38236 797.25076 89.857999 738.12109 83.251953 C 733.50691 82.736451 727.72595 82.368706 721.39648 82.148438 z M 687.77539 82.253906 C 680.40927 82.549785 673.68289 83.028327 668.52148 83.683594 C 608.79364 91.266318 556.8296 113.69556 510.95898 151.68945 L 504.76953 156.81445 L 491.68945 144.43945 C 477.74891 131.25246 476.57921 130.53571 469.93945 131.10742 C 458.83252 132.06377 450.62602 142.73056 452.79102 153.39648 C 453.71547 157.95079 454.17535 158.56941 465.82422 170.90039 L 477.90039 183.68359 L 472.74023 189.83789 C 434.07439 235.94846 408.72347 292.4193 400.98047 349.69141 C 400.13833 355.92039 399.47986 362.14817 399 368.36719 L 437.06836 368.36719 C 438.7763 347.07772 442.84075 327.78772 449.86914 306.6582 C 455.5082 289.70545 459.72357 279.45577 466.67383 265.79492 C 476.00441 247.45551 490.55264 225.26052 501.11133 213.25977 L 504.08984 209.875 L 536.19922 241.61523 L 568.30859 273.35742 L 566.74219 275.69336 C 565.88025 276.97829 563.78833 279.82503 562.09375 282.01953 C 556.74035 288.95218 548.30496 303.09621 543.85547 312.60352 C 535.51477 330.42528 530.58022 348.37201 528.62891 368.36719 L 566.94531 368.36719 C 568.58191 355.36115 571.91191 343.04961 576.98828 331.16602 C 580.17961 323.69522 588.20975 309.34102 591.93945 304.43945 L 595.14648 300.22461 L 618.92383 324.00195 C 643.95928 349.0374 645.91489 350.60002 652.63086 350.9375 C 664.51746 351.53482 674.74754 338.67163 671.52539 327.17969 C 670.44573 323.32918 669.293 322.04301 646.31445 299.06445 C 632.16126 284.91126 622.33809 274.54397 622.48633 273.91602 C 622.86612 272.30721 638.42985 262.56141 647.71484 258.11914 C 660.91484 251.8038 673.58663 247.99928 687.77539 246.25781 L 687.77539 208.70703 C 657.12238 211.87555 627.51941 223.08447 602.45703 241.82422 L 595.20312 247.24805 L 563.06055 215.47266 L 530.91797 183.69922 L 534.19336 180.42383 C 535.99473 178.62246 541.3006 174.30714 545.98242 170.83594 C 587.93444 139.73172 636.50306 121.85833 687.77539 118.34375 L 687.77539 82.253906 z M 708.39648 356.40234 C 704.40542 356.19172 700.22322 356.79032 696.02539 358.35156 C 691.1454 360.16651 689.73228 361.20457 685.18164 366.31445 C 680.86795 371.15826 679.72363 373.14857 678.66211 377.64844 C 677.27329 383.53573 678.15392 393.31301 680.50391 398.0918 C 682.7136 402.58527 692.97749 411.75024 697.41016 413.1875 C 702.54197 414.85145 710.84625 414.93443 716.07617 413.375 C 719.67197 412.30283 721.61197 410.89888 727.16992 405.34375 C 733.63952 398.87791 733.9582 398.36709 735.26172 392.39453 C 739.39933 373.43648 725.69108 357.31503 708.39648 356.40234 z M 398.1543 401.98828 C 399.71808 459.80182 416.87628 515.5556 448.16797 562.66016 C 453.95391 571.36994 468.41324 590.68277 471.33789 593.60742 C 472.03665 594.30618 469.57876 597.1771 460.55273 606.20312 C 447.70767 619.04818 446.16983 621.47244 446.38867 628.51953 C 446.4592 630.79056 447.30804 634.31636 448.27539 636.35352 C 451.58047 643.31375 459.93593 647.27014 468.29883 645.83398 L 473.42188 644.95312 L 485.92773 632.91602 L 498.43359 620.87891 L 502.86914 624.45898 C 534.99338 650.38918 561.85887 665.42403 597.7793 677.57422 C 627.06993 687.48185 657.41422 693.04269 687.77539 694.18945 L 687.77539 656.32617 C 682.8635 656.13891 677.96054 655.81773 673.07422 655.36133 C 625.96786 650.96145 578.99772 633.50081 540.56055 606.09961 C 537.83596 604.1573 533.24542 600.63375 530.35938 598.26953 L 525.11133 593.9707 L 559.13477 559.94727 L 593.1582 525.92383 L 594.99219 527.75781 C 596.00059 528.76621 600.71094 532.168 605.46094 535.31836 C 629.33142 551.15004 659.03227 561.48598 687.77539 564.34375 L 687.77539 526.04688 C 669.44606 523.99094 651.63076 518.53386 635.83008 509.78711 C 631.45572 507.3656 626.06951 504.00149 623.86133 502.31055 L 619.8457 499.23633 L 644.35547 474.72656 C 670.9793 448.10274 671.83543 446.99805 672.00781 438.99414 C 672.05247 436.92059 671.04756 433.14695 669.77539 430.60938 C 665.73496 422.55005 657.77648 418.93954 649.06641 421.21289 L 644.29883 422.45703 L 619.08203 447.67383 L 593.86523 472.89062 L 591.97266 470.89453 C 590.9316 469.7966 587.35974 464.34001 584.03516 458.76758 C 574.42977 442.66774 568.31204 422.81965 566.39844 401.98828 L 528.0918 401.98828 C 530.2339 433.79436 540.33847 462.11578 559.27734 489.80273 L 566.16992 499.87891 L 532.64844 533.76758 L 499.12695 567.65625 L 497.23828 565.64258 C 493.55547 561.71521 480.9058 543.91411 475.21484 534.65039 C 450.66372 494.68625 437.55955 450.07935 436.22266 401.98828 L 398.1543 401.98828 z M 846.60156 401.98828 C 845.18368 414.46328 842.2363 426.49702 837.82422 436.98828 C 834.09345 445.85949 825.76296 460.87866 821.35547 466.68164 L 818.15039 470.90234 L 794.01953 446.77148 C 767.79911 420.55106 766.97627 419.91744 759.46094 420.16992 C 747.97228 420.5559 739.57184 431.57654 742.11328 442.92969 L 743.3418 448.41992 L 767.69531 472.77344 L 792.05078 497.12695 L 787.74219 500.5293 C 781.64245 505.34602 763.20021 515.02478 753.38086 518.5625 C 743.06781 522.27809 732.30225 524.75152 721.39648 526.00586 L 721.39648 564.26367 C 754.3553 561.09218 783.85087 549.52088 812.57617 528.61328 L 818.91992 523.99609 L 851.00391 556.08203 L 883.08984 588.16602 L 880.08984 590.4707 C 878.44019 591.73786 873.88523 595.29502 869.9668 598.37695 C 828.51508 630.9796 775.50041 651.04911 721.39648 655.55469 L 721.39648 693.64844 C 734.58652 692.7208 747.70581 690.94791 760.66992 688.32422 C 796.70614 681.03116 828.60609 668.67714 860.45508 649.67773 C 874.6552 641.20671 896.17717 625.95564 901.63672 620.49609 C 902.99599 619.13681 905.30132 617.22809 906.75977 616.25586 L 909.41211 614.48828 L 920.83008 625.875 C 934.22046 639.22895 937.68498 641.13677 945.62109 639.52148 C 954.17691 637.78005 960.36763 630.83023 961.11719 622.125 C 961.69433 615.42192 960.04208 612.79208 947.15039 599.90039 L 935.52344 588.27344 L 937.77734 585.22461 C 939.01725 583.54771 942.86254 578.64267 946.32227 574.32422 C 975.96377 537.32655 998.8909 485.795 1006.6348 438.76758 C 1008.5517 427.12631 1009.7794 414.6748 1010.3105 401.98828 L 974.38867 401.98828 C 971.76181 444.61615 959.14363 486.15827 937.40039 522.58789 C 929.95943 535.05482 919.62918 549.74348 913.5918 556.44336 L 909.23438 561.2793 L 877.15234 529.56445 L 845.07031 497.84961 L 849.70312 491.50781 C 869.43312 464.49766 881.09936 433.94646 883.91992 401.98828 L 846.60156 401.98828 z " />
  </g>
</svg>
